<svg width="380" height="166" viewBox="0 0 380 166" fill="none" xmlns="http://www.w3.org/2000/svg">
<path d="M26.9336 116.066C30.0586 112.486 31.6211 108.938 31.6211 105.422C31.6211 105.292 31.5885 104.283 31.5234 102.395C31.4583 100.441 30.319 97.6419 28.1055 93.9961C25.8919 90.2852 23.2878 86.5742 20.293 82.8633L16.582 77.7852C14.9544 75.5716 13.2943 73.4557 11.6016 71.4375C7.30469 66.5547 4.11458 61.5417 2.03125 56.3984C1.25 54.5104 0.859375 52.4596 0.859375 50.2461C0.859375 46.4701 2.03125 42.2383 4.375 37.5508C10.2344 26.1576 18.5352 17.1081 29.2773 10.4023C32.4023 8.44922 35.0065 7.47266 37.0898 7.47266C39.1732 7.40755 41.1589 8.1888 43.0469 9.81641C45.2604 11.8346 46.3672 13.9831 46.3672 16.2617C46.3672 16.5221 46.2695 17.401 46.0742 18.8984C45.8789 20.3958 44.2513 21.763 41.1914 23C36.569 24.8229 32.5977 27.362 29.2773 30.6172C26.0221 33.8073 23.1576 37.4531 20.6836 41.5547C18.9258 44.4844 18.0469 47.2188 18.0469 49.7578C18.0469 51.3203 18.6328 53.3711 19.8047 55.9102C20.9766 58.4492 23.5807 61.7695 27.6172 65.8711C31.0026 69.4518 34.4206 73.7161 37.8711 78.6641C41.3867 83.612 44.2188 89.7643 46.3672 97.1211C47.2786 100.637 47.7344 103.924 47.7344 106.984C47.7344 109.914 47.0833 113.234 45.7812 116.945C44.4792 120.656 41.7122 124.497 37.4805 128.469C33.2487 132.375 28.3984 136.314 22.9297 140.285L21.7578 141.066C19.9349 142.238 18.1445 143.052 16.3867 143.508C15.7357 143.703 15.1823 143.898 14.7266 144.094C10.8854 143.833 8.05339 142.694 6.23047 140.676C4.86328 139.113 4.17969 137.486 4.17969 135.793C4.17969 135.142 4.375 134.068 4.76562 132.57C5.15625 131.008 7.07682 129.576 10.5273 128.273C13.9128 127.102 16.9076 125.441 19.5117 123.293C22.181 121.079 24.6549 118.671 26.9336 116.066ZM106.523 164.895C96.5625 162.681 87.9688 158.775 80.7422 153.176C73.5807 147.577 68.2747 139.764 64.8242 129.738C61.2435 119.908 59.4531 109.751 59.4531 99.2695C59.4531 98.2279 59.4857 97.1862 59.5508 96.1445C59.8763 78.2409 63.3919 61.5742 70.0977 46.1445C76.8034 30.6497 87.2852 17.3359 101.543 6.20312C102.715 5.35677 104.505 4.64062 106.914 4.05469C107.956 3.79427 108.965 3.66406 109.941 3.66406C111.309 3.66406 112.871 3.98958 114.629 4.64062C116.387 5.22656 117.559 7.14714 118.145 10.4023C118.275 11.1185 118.34 11.7695 118.34 12.3555C118.34 15.5456 116.68 17.7266 113.359 18.8984C110.169 19.8099 107.467 21.2747 105.254 23.293C103.04 25.2461 101.022 27.4596 99.1992 29.9336C83.444 49.6602 75.5664 71.2096 75.5664 94.582C75.5664 102.199 76.4128 110.012 78.1055 118.02C81.7513 135.272 92.3307 145.559 109.844 148.879C114.271 149.921 116.81 151.874 117.461 154.738C117.656 155.454 117.754 156.171 117.754 156.887C117.754 158.905 116.973 160.793 115.41 162.551C113.848 164.309 111.764 165.188 109.16 165.188C108.314 165.188 107.435 165.09 106.523 164.895ZM146.465 24.2695C151.087 21.9909 155.514 20.8516 159.746 20.8516C162.676 20.8516 166.484 21.8281 171.172 23.7812C175.859 25.6693 180.482 30.0312 185.039 36.8672C189.596 43.638 192.689 51.1576 194.316 59.4258C195.944 67.5638 196.758 75.6693 196.758 83.7422C196.758 88.0391 196.302 94.3216 195.391 102.59C194.479 110.793 190.703 120.493 184.062 131.691C181.719 135.663 178.984 139.243 175.859 142.434C172.734 145.624 168.828 147.967 164.141 149.465C160.365 150.572 156.849 151.125 153.594 151.125C149.883 151.125 145.749 150.148 141.191 148.195C136.699 146.242 132.533 142.466 128.691 136.867C124.85 131.203 122.051 124.953 120.293 118.117C117.754 108.872 116.484 99.7253 116.484 90.6758C116.484 77.1341 119.284 63.8203 124.883 50.7344C128.073 44.0286 132.077 37.7461 136.895 31.8867C137.025 31.6914 137.188 31.4961 137.383 31.3008C139.857 28.3711 142.884 26.0273 146.465 24.2695ZM145.879 131.691C148.483 134.23 151.185 135.5 153.984 135.5C155.807 135.5 158.411 134.621 161.797 132.863C165.182 131.04 168.796 126.451 172.637 119.094C176.543 111.672 179.115 102.753 180.352 92.3359C180.742 89.2109 180.938 85.9883 180.938 82.668C180.938 75.181 179.896 67.4336 177.812 59.4258C176.836 55.7799 175.111 51.8086 172.637 47.5117C170.228 43.1497 167.233 39.9596 163.652 37.9414C162.35 37.1602 160.983 36.7695 159.551 36.7695C157.142 36.7695 154.635 37.8112 152.031 39.8945C144.805 46.4049 139.759 54.3151 136.895 63.625C134.16 72.5443 132.793 81.7565 132.793 91.2617V94.7773C132.793 100.637 133.77 106.952 135.723 113.723C137.676 120.428 141.061 126.418 145.879 131.691ZM235.039 138.43C236.406 140.253 237.09 142.206 237.09 144.289C237.09 145.005 236.862 146.275 236.406 148.098C235.951 149.921 234.648 151.743 232.5 153.566C231.003 154.868 229.408 155.52 227.715 155.52C226.999 155.52 225.827 155.259 224.199 154.738C222.572 154.217 220.846 151.483 219.023 146.535C211.992 124.79 208.477 103.013 208.477 81.2031C208.477 61.0208 211.471 40.806 217.461 20.5586C218.438 16.7826 219.707 14.276 221.27 13.0391C222.897 11.737 225.664 10.8906 229.57 10.5C230.872 10.3047 232.174 10.207 233.477 10.207C236.211 10.207 239.076 10.6953 242.07 11.6719C245.13 12.5833 248.451 14.1784 252.031 16.457C261.211 22.1862 267.461 29.2174 270.781 37.5508C272.409 41.7174 273.223 46.1445 273.223 50.832C273.223 55.4544 272.409 60.3698 270.781 65.5781C265.703 80.2266 256.947 92.2383 244.512 101.613C243.991 102.004 243.47 102.46 242.949 102.98C242.559 103.436 242.363 103.957 242.363 104.543V104.934C242.624 105.78 243.438 106.561 244.805 107.277C246.237 107.928 247.507 108.449 248.613 108.84C248.874 108.905 249.102 108.97 249.297 109.035L249.688 109.23C258.151 112.876 266.973 114.927 276.152 115.383C280.449 115.773 283.184 117.401 284.355 120.266C284.876 121.438 285.137 122.577 285.137 123.684C285.137 125.311 284.648 126.874 283.672 128.371C282.305 130.715 280.026 131.887 276.836 131.887C276.38 131.887 275.892 131.854 275.371 131.789C265.671 130.422 256.165 128.176 246.855 125.051C244.251 124.204 241.68 123.293 239.141 122.316L233.867 120.363C232.956 120.038 232.077 119.875 231.23 119.875C230.319 119.875 229.701 120.461 229.375 121.633C229.31 121.958 229.277 122.316 229.277 122.707C229.277 123.033 229.31 123.358 229.375 123.684C229.505 124.725 229.701 125.767 229.961 126.809L230.156 127.59C230.938 131.561 232.565 135.174 235.039 138.43ZM230.742 33.7422C226.771 48.9766 224.785 64.3737 224.785 79.9336C224.785 82.7982 224.85 85.6302 224.98 88.4297C225.046 89.5365 225.273 90.4479 225.664 91.1641C226.055 91.8151 226.868 92.1406 228.105 92.1406C229.733 91.8802 231.133 91.1641 232.305 89.9922L232.598 89.6992C237.676 85.4023 242.428 80.7474 246.855 75.7344L246.953 75.5391C250.859 71.0469 253.626 65.9362 255.254 60.207C256.035 57.5378 256.426 54.901 256.426 52.2969C256.426 49.1719 255.905 46.0794 254.863 43.0195C251.868 35.3372 246.497 30.0964 238.75 27.2969C237.578 26.9714 236.569 26.8086 235.723 26.8086C234.551 26.8086 233.574 27.2643 232.793 28.1758C232.012 29.0872 231.393 30.6497 230.938 32.8633C230.872 33.1237 230.807 33.4167 230.742 33.7422ZM300.469 145.754C298.385 135.988 296.986 126.158 296.27 116.262C295.814 106.757 295.586 97.2839 295.586 87.8438C295.586 79.8359 295.846 69.5169 296.367 56.8867C296.888 44.1914 298.743 29.2174 301.934 11.9648C302.715 7.34245 303.919 4.3151 305.547 2.88281C307.24 1.45052 310.397 0.669271 315.02 0.539062C319.837 0.34375 324.622 0.213542 329.375 0.148438H333.281C336.992 0.213542 339.694 1.41797 341.387 3.76172C342.624 5.38932 343.242 7.08203 343.242 8.83984C343.242 9.49089 343.014 10.6302 342.559 12.2578C342.168 13.8203 340.312 14.862 336.992 15.3828C333.346 15.7083 330.352 15.9036 328.008 15.9688C323.646 15.9688 320.651 16.6198 319.023 17.9219C317.461 19.1589 316.289 22.5443 315.508 28.0781C313.359 40.7734 312.285 53.5664 312.285 66.457V67.6289C312.48 69.9727 313.359 71.2747 314.922 71.5352C315.573 71.6654 316.257 71.7305 316.973 71.7305C318.079 71.7305 319.284 71.6003 320.586 71.3398C321.302 71.2096 322.051 71.112 322.832 71.0469C324.199 70.8516 325.566 70.7539 326.934 70.7539C328.952 70.7539 331.23 71.0794 333.77 71.7305C336.374 72.3164 337.806 74.6602 338.066 78.7617C337.806 82.4076 336.243 84.7513 333.379 85.793C330.514 86.8346 327.292 87.4531 323.711 87.6484C321.107 87.8438 318.763 88.2344 316.68 88.8203C314.596 89.3411 313.164 90.3828 312.383 91.9453C311.667 93.8984 311.309 96.9258 311.309 101.027C311.309 102.004 311.374 104.185 311.504 107.57C311.699 110.891 312.09 115.318 312.676 120.852C313.262 126.385 313.717 130.161 314.043 132.18C314.303 134.263 314.922 135.5 315.898 135.891C316.159 135.956 316.517 135.988 316.973 135.988C317.949 135.988 319.316 135.728 321.074 135.207C324.199 134.361 326.836 133.938 328.984 133.938C330.417 133.938 332.012 134.263 333.77 134.914C335.527 135.565 336.699 136.9 337.285 138.918C337.48 139.699 337.578 140.48 337.578 141.262C337.578 142.434 337.253 143.768 336.602 145.266C335.951 146.763 334.876 147.772 333.379 148.293C325.762 150.702 318.014 152.525 310.137 153.762C309.486 153.892 308.867 153.957 308.281 153.957C303.854 153.957 301.25 151.223 300.469 145.754ZM379.668 120.07C379.603 125.799 378.431 129.836 376.152 132.18C374.069 134.263 371.693 135.305 369.023 135.305C368.828 135.305 367.949 135.272 366.387 135.207C364.824 135.077 363.034 134.068 361.016 132.18C358.737 129.706 357.598 126.646 357.598 123C357.598 121.893 357.858 119.777 358.379 116.652C358.965 113.462 361.243 110.793 365.215 108.645C366.647 108.059 368.014 107.766 369.316 107.766C370.228 107.766 371.465 108.026 373.027 108.547C374.655 109.003 376.055 110.37 377.227 112.648C378.268 114.992 378.984 117.043 379.375 118.801C379.505 119.322 379.603 119.745 379.668 120.07ZM377.031 66.6523C376.771 72.5768 374.915 76.418 371.465 78.1758C369.772 79.0221 368.079 79.4453 366.387 79.4453C364.564 79.4453 362.285 78.7617 359.551 77.3945C356.882 75.9622 355.352 72.8372 354.961 68.0195C355.156 62.2253 357.012 58.3516 360.527 56.3984C362.35 55.3568 364.206 54.8359 366.094 54.8359C367.786 54.8359 369.935 55.487 372.539 56.7891C375.208 58.0911 376.706 61.3789 377.031 66.6523Z" fill="#EF5DA8"/>
</svg>
